<svg version="1" xmlns="http://www.w3.org/2000/svg" width="1788" height="1788" viewBox="0 0 1341.000000 1341.000000"><path d="M651.3 11.9C543.2 77.2 416.2 117.8 274.5 132.4c-41.5 4.3-55.1 4.9-116 5.1l-60 .3-2.7 21.3C63.5 410.6 57.3 580.2 75.6 716.5c19.2 144 66.1 257.4 145.4 352 65.5 78 152.2 142.7 265.5 198.1 51.2 25 103.3 46.4 163 66.9l21 7.2 6-2c3.3-1.1 16.1-5.5 28.5-9.9 291.8-103.5 457.3-249.6 527.8-465.8 42.3-129.6 52.6-284.8 33.7-508-4.5-53.1-11.3-115.6-20.3-187.4l-3.7-29.8-60-.2c-62.3-.3-75-.8-120-5.6-144-15.4-274.3-58.3-384-126.6l-8-5-19.2 11.5zm-97.6 368.3c-19 18.9-38.7 41.5-38.7 44.3 0 .6 5.2 6.2 11.5 12.5s11.5 11.9 11.5 12.5c0 .5-2.9 3.9-6.4 7.5l-6.4 6.5 25.9 26.5c40.5 41.3 47.2 49.1 91.2 105 9.7 12.4 19.4 24.5 21.4 26.9l3.8 4.3 10.6-12.8c5.7-7.1 17.4-21.9 25.9-32.8 30.6-39.4 40.9-50.9 87.7-98.6l18.2-18.5-6.9-7-6.9-7 12-12.2c6.7-6.8 11.9-12.7 11.7-13.2-1.3-4-20.8-26.2-38.5-43.9L760 359h7.3c14.8 0 33.2 4.4 48.2 11.5 18.6 8.9 22.6 12.3 76.5 66.5 54.3 54.5 59.7 59.2 88.8 77.4 2.3 1.4 4.2 3.1 4.2 3.7 0 1.6-8.4 14.3-15.8 23.9-14 18.1-42.7 44.3-58.4 53.4l-4.7 2.7-10.9-22.3c-11.4-23.5-20.5-40-28-50.8-4.8-6.9-16.4-21-20.4-24.7l-2.4-2.3-37 37.3c-20.3 20.5-54.4 54.9-75.9 76.6l-39 39.3 6.5 6c3.6 3.3 28.3 24.7 55 47.6C876.5 809.9 892.2 825 937 880.5c14.8 18.3 48 62.8 48 64.2 0 2.2-9.2 8.1-16 10.5-4.1 1.3-9.1 2.2-13.4 2.2-8.1.1-6 2.4-20.5-22-27.2-45.6-52.5-78.9-74.8-98.5-13.7-12.1-21.8-18.7-62.8-50.9-53.8-42.3-91.4-73.8-122-102.3l-8-7.4-9.9 9.1c-28.7 26.6-64.7 57-106.1 89.5-66.6 52.4-82.2 65.5-95.3 80.3-16.5 18.6-39.2 51-57.7 82.3-4.9 8.2-9.4 16-10.1 17.1-3.8 6.3-24.8 2.4-35.6-6.6l-3.7-3.1 5.6-7.7c40.4-55.2 71.2-92.1 101.9-122.3 23.3-23 39.6-37.4 127.9-113 24.8-21.3 47.9-41.3 51.4-44.6l6.5-5.9-41.9-42.5c-23.1-23.3-57.3-57.9-76.1-76.8l-34.1-34.3-8.8 9.8c-13.2 14.8-22.9 30.5-38.7 62.2L428.7 598l-4.6-2.6c-21.3-12.4-52.5-43.1-68.3-67.3l-6.7-10.4 12.2-8c25.3-16.5 29-19.8 81.7-72.8 38-38.1 52.4-51.9 58-55.6 22.6-14.9 43.1-21.8 66.3-22.2l7.7-.1-21.3 21.2z"/><path d="M548 366.6c-8.7 1.8-19.9 5.8-28.5 10.2-16.4 8.2-20.1 11.5-72 63.6-51.3 51.5-57.9 57.4-80.2 72-5.7 3.7-10.3 7-10.3 7.3 0 .3 2.1 3.6 4.6 7.4 11.7 17.4 35.3 41.9 53.2 55.2 5.7 4.2 10.6 7.7 11 7.7.4 0 5.6-9.8 11.5-21.9 17.2-34.8 27.6-51 44.4-69l8.8-9.3 64 64.8c35.2 35.7 71.1 72.2 79.8 81l15.8 16.2-11.3 10.3c-6.2 5.6-36 31.5-66.3 57.4C460.2 815.7 446.9 828.6 400.6 886c-13.3 16.5-43.6 56.9-43.6 58.1 0 2.2 13.1 7.2 19.8 7.6l6.7.5 6.9-11.9c17.1-29.4 37.5-59.4 53.4-78.9 17.7-21.6 28.9-31.4 111.3-96.4 39.8-31.4 72-58.8 99.1-84.1 6.9-6.6 12.9-11.9 13.3-11.9.4 0 4.9 3.9 9.9 8.7 30.2 28.9 63.5 56.8 138.2 115.6 52.5 41.3 64.4 52.6 86.6 82.2 12.7 17 35.1 51.5 45.3 69.9l3.8 6.8 6.9-.4c4.9-.4 8.6-1.4 13.3-3.7 3.6-1.8 6.5-3.5 6.5-3.9 0-1.9-37-50.5-55.4-72.7-37.6-45.5-55.1-62-160.1-152-52.1-44.6-77.3-66.6-77.4-67.6-.1-.3 35.8-36.9 79.6-81.4l79.8-80.8 7.8 8.4c10.3 11.1 20.3 24.4 27.8 37.1 5.7 9.4 24.7 46.5 26.9 52.3.5 1.4 1.4 2.5 1.9 2.5 2.2 0 22.3-16.2 33-26.5 17.3-16.8 37.8-42.4 35.4-44.5-.4-.4-5.5-3.9-11.3-7.7-21.8-14.6-28.7-20.8-79-71.4-51.1-51.4-55-54.8-71-62.9-9.3-4.7-18.2-7.9-28-10.1-14.9-3.3-14.9-3.7 1.8 13.5 13.1 13.5 35.4 39.7 36.9 43.4.3.7-4.6 6.6-11.2 13.3l-11.8 12.1 7.1 7.1 7.1 7.1-31 31.4c-35.4 35.8-48.5 50.8-80.9 92.2-30.7 39.3-37.8 47.4-39.7 45.8-2.7-2.2-19.7-23.1-37.8-46.3-9.8-12.7-23.3-29.5-29.8-37.4-11.8-14.1-44.5-48.7-69.1-73.1L517 463.5l7-7 7-7.1-11.8-12.4-11.9-12.5 7-9c10.5-13.5 16.7-20.6 32.1-36.3 15.5-15.8 15.5-15.6 1.6-12.6z"/></svg>